<svg id="Capa_1" enable-background="new 0 0 512 512" height="512" viewBox="0 0 512 512" width="512" xmlns="http://www.w3.org/2000/svg"><g><path d="m76.17 337.878c-4.268 0-7.726-3.459-7.726-7.726v-197.72c0-4.267 3.459-7.726 7.726-7.726 4.268 0 7.726 3.459 7.726 7.726v197.72c0 4.266-3.458 7.726-7.726 7.726z" fill="#544f56"/><path d="m130.03 78.578c-29.745-29.745-77.973-29.748-107.718-.003s-29.743 77.973.002 107.719c29.745 29.745 77.971 29.744 107.716-.001s29.745-77.97 0-107.715z" fill="#df646e"/><path d="m130.03 78.578c-9.725-9.725-21.431-16.249-33.816-19.615 1.647 1.389 3.259 2.841 4.81 4.392 29.745 29.745 29.745 77.971 0 107.716-20.02 20.02-48.406 26.543-73.9 19.615 29.926 25.253 74.713 23.802 102.906-4.392 29.745-29.746 29.745-77.971 0-107.716z" fill="#dc4955"/><path d="m130.03 186.293c-6.782 6.782-14.517 12.012-22.776 15.702 29.768-42.832-5.555-79.77-31.084-69.564-6.019-15.039 4.336-33.483 22.624-40.002 26.052-9.287 52.941 10.726 53.528 38.377.425 20.032-7.007 40.202-22.292 55.487z" fill="#eec06b"/><path d="m152.28 129.994c-.81-20.163-15.603-36.097-33.707-39.277 7.362 19.88 6.154 42.206-3.638 61.276 5.913 13.08 5.553 30.941-7.66 49.971 28.009-12.513 46.003-40.794 45.005-71.97z" fill="#e9a761"/><path d="m22.312 78.575c6.782-6.782 14.513-12.019 22.773-15.709-29.768 42.832 5.555 79.77 31.084 69.564 6.019 15.039-4.336 33.483-22.624 40.002-26.052 9.287-52.941-10.726-53.528-38.377-.425-20.031 7.01-40.195 22.295-55.48z" fill="#eec06b"/><path d="m194.831 58.21v26.462c0 3.596 1.049 7.115 3.017 10.124l10.851 16.587c4.853 7.419 7.438 16.092 7.438 24.958v246.264h208.553v-246.264c0-8.866 2.585-17.539 7.438-24.958l10.851-16.587c1.969-3.01 3.017-6.528 3.017-10.124v-26.462z" fill="#80b6fc"/><path d="m406.577 58.21v26.462c0 3.596-1.049 7.115-3.017 10.124l-10.851 16.587c-4.853 7.419-7.438 16.092-7.438 24.958v246.264h39.42v-246.264c0-8.865 2.585-17.539 7.438-24.958l10.851-16.587c1.969-3.01 3.017-6.528 3.017-10.124v-26.462z" fill="#5392f9"/><path d="m288.142 251.042h233.873v95.765h-233.873z" fill="#e3e0e4" transform="matrix(.342 -.94 .94 .342 -14.364 577.335)"/><g fill="#eec06b"><path d="m482.334 153.253 11.538 14.704 14.299-3.007c2.706-.569 4.791 2.36 3.367 4.731l-21.47 35.737-89.99-32.754 6.525-41.174c.433-2.732 3.914-3.636 5.621-1.459l6.5 8.287c1.537 1.96 4.054 2.876 6.492 2.364l14.309-3.01c2.437-.513 4.954.403 6.491 2.362l9.027 11.504c1.537 1.959 4.054 2.875 6.491 2.362l14.31-3.01c2.436-.512 4.953.404 6.49 2.363z"/><path d="m370.52 347.752 17.05 24.08c2.985 4.216 9.476 3.344 11.243-1.51l41.614-114.333c.719-1.974.423-4.176-.791-5.89l-17.05-24.08c-2.985-4.216-9.476-3.344-11.243 1.51l-41.614 114.333c-.719 1.974-.423 4.175.791 5.89z"/><path d="m252.667 439.304h-204.087c-6.927 0-12.543-5.616-12.543-12.543v-148.541c0-6.927 5.616-12.543 12.543-12.543h204.086c6.927 0 12.543 5.616 12.543 12.543v148.541c.001 6.927-5.615 12.543-12.542 12.543z"/></g><path d="m252.667 265.677h-34.384c6.927 0 12.543 5.616 12.543 12.543v148.541c0 6.927-5.616 12.543-12.543 12.543h34.384c6.927 0 12.543-5.616 12.543-12.543v-148.541c0-6.928-5.616-12.543-12.543-12.543z" fill="#e9a761"/><ellipse cx="150.623" cy="352.49" fill="#f8e7c7" rx="63.37" ry="41.353"/><path d="m1.654 353.186v137.094c0 2.998 2.43 5.428 5.428 5.428h477.898c2.998 0 5.428-2.43 5.428-5.428v-137.094c0-2.998-2.43-5.428-5.428-5.428h-477.898c-2.998 0-5.428 2.43-5.428 5.428z" fill="#ab7b64"/><path d="m484.98 347.758h-32.037c2.998 0 5.428 2.43 5.428 5.428v137.094c0 2.998-2.43 5.428-5.428 5.428h32.037c2.998 0 5.428-2.43 5.428-5.428v-137.094c.001-2.998-2.43-5.428-5.428-5.428z" fill="#9a6a53"/><path d="m200.073 16.292h240.683c2.895 0 5.242 2.347 5.242 5.242v36.676h-251.167v-36.676c0-2.895 2.347-5.242 5.242-5.242z" fill="#f8e7c7"/><path d="m440.756 16.292h-39.42c2.895 0 5.242 2.347 5.242 5.242v36.676h39.42v-36.676c-.001-2.895-2.347-5.242-5.242-5.242z" fill="#f4daa7"/><path d="m356.053 157.572c-13.811-13.811-40.963-9.051-60.646 10.631-19.683 19.683-24.442 46.835-10.631 60.646s40.963 9.051 60.646-10.631c19.682-19.683 24.442-46.835 10.631-60.646z" fill="#f8e7c7"/></g></svg>