<svg id="Capa_1" enable-background="new 0 0 512 512" height="512" viewBox="0 0 512 512" width="512" xmlns="http://www.w3.org/2000/svg"><g><path d="m167.604 342.592-39.6-108.802 4.593-1.672c6.377-2.321 10.711-8.44 10.788-15.226l1.238-111.263c.161-14.433-3.877-28.499-11.676-40.677l-4.857-7.584c-6.812-10.633-19.713-15.095-31.37-10.851l-79.433 28.911c-11.661 4.245-18.674 15.955-17.056 28.478l1.155 8.931c1.853 14.342 7.802 27.712 17.202 38.665l72.467 84.437c3.163 3.687 7.778 5.709 12.486 5.709 4.248 0 6.656-1.53 10.158-2.65l39.6 108.802c1.125 3.091 4.044 5.01 7.154 5.01.864 0 1.743-.148 2.603-.461 3.948-1.439 5.986-5.807 4.548-9.757zm-101.439-212.4c-5.495-10.3-10.292-21.881-13.255-33.653-1.316-5.229-3.724-11.628-3.43-16.627l25.46-9.267c3.429 3.631 5.733 10.146 8.06 14.942 5.297 10.921 9.067 22.876 11.479 34.299l21.541 102.066-.749.273zm35.761-69.369c4.916-1.79 10.403.166 13.345 4.756l4.857 7.584c6.193 9.671 9.399 20.839 9.271 32.297l-1.122 100.86-18.905-89.577c-2.643-12.527-6.918-25.543-12.557-37.549-3.135-6.675-4.268-9.777-6.952-13.98zm-71.787 80.765c-7.463-8.695-12.184-19.312-13.656-30.702l-1.155-8.932c-.699-5.406 2.248-10.431 7.165-12.221l12.062-4.39c.646 4.949 1.774 8.057 3.661 15.178 3.398 12.824 8.491 25.542 14.516 36.836l43.097 80.772z" fill="#ddebfd"/><path d="m203.044 390.457-45.734-125.653c-.864-2.373-2.6-4.268-4.889-5.335-2.288-1.067-4.856-1.18-7.229-.316l-28.358 10.321c-4.899 1.783-7.434 7.219-5.651 12.118l45.734 125.652c.864 2.373 2.601 4.268 4.889 5.334 1.272.593 2.628.891 3.99.891 1.09 0 2.183-.191 3.239-.575l28.357-10.322c2.373-.864 4.268-2.6 5.335-4.888 1.068-2.287 1.18-4.854.317-7.227z" fill="#61aab8"/><path d="m486.037 365.618-2.202-87.577c-.103-4.099-3.455-7.368-7.555-7.368h-43.382v-25.97h47.644c15.944 0 28.747 12.485 29.147 28.424l2.309 91.838c.07 2.802-2.144 5.131-4.946 5.202l-15.813.397c-2.802.071-5.131-2.144-5.202-4.946z" fill="#91dafa"/><path d="m451.158 222.514h-220.61c-2.803 0-5.076 2.272-5.076 5.076v12.344c0 1.959 1.127 3.743 2.897 4.584l40.803 19.393c3.417 1.624 5.815 4.828 6.41 8.564l29.582 185.716c.815 5.116 5.228 8.882 10.409 8.882h94.773c5.181 0 9.594-3.765 10.409-8.882l36.418-228.628c.589-3.699-2.269-7.049-6.015-7.049z" fill="#91dafa"/><path d="m451.158 222.514h-20.82c3.746 0 6.604 3.35 6.015 7.049l-36.418 228.628c-.815 5.117-5.228 8.882-10.409 8.882h20.82c5.181 0 9.594-3.765 10.409-8.882l36.418-228.628c.589-3.699-2.269-7.049-6.015-7.049z" fill="#75cff9"/><path d="m316.638 298.674h-285.844c-3.26 0-5.902 2.643-5.902 5.902v85.777c0 10.405 4.507 20.3 12.357 27.13l49.745 43.28c4.678 4.07 10.669 6.311 16.869 6.311h139.707c6.2 0 12.191-2.241 16.869-6.311l49.745-43.28c7.85-6.83 12.357-16.725 12.357-27.13v-85.777c0-3.26-2.643-5.902-5.903-5.902z" fill="#8a94db"/><path d="m310.184 395.356-49.745 43.28c-4.678 4.07-10.669 6.311-16.869 6.311h-139.708c-6.2 0-12.191-2.241-16.869-6.311l-49.745-43.28c-7.85-6.83-12.357-16.725-12.357-27.13v22.126c0 10.405 4.507 20.3 12.357 27.13l49.745 43.28c4.678 4.07 10.669 6.311 16.869 6.311h139.708c6.2 0 12.191-2.242 16.869-6.311l49.745-43.28c7.85-6.83 12.357-16.725 12.357-27.13v-22.126c0 10.405-4.507 20.3-12.357 27.13z" fill="#5766cc"/><path d="m316.638 298.674h-25.691c3.26 0 5.902 2.643 5.902 5.902v85.777c0 10.405-4.507 20.3-12.357 27.13l-49.744 43.279c-4.678 4.07-10.669 6.311-16.869 6.311h25.691c6.2 0 12.191-2.242 16.869-6.311l49.745-43.28c7.85-6.83 12.357-16.725 12.357-27.13v-85.777c0-3.259-2.643-5.901-5.903-5.901z" fill="#5766cc"/><path d="m334.152 342.24c-26.555-11.823-66.32 19.555-79.743 49.703-11.823 26.555.12 57.667 26.675 69.49s57.667-.12 69.49-26.675c13.423-30.148 10.134-80.695-16.422-92.518z" fill="#ffeee5"/><path d="m334.152 342.24c-3.076-1.37-6.331-2.153-9.7-2.432 16.828 16.811 16.545 58.747 4.677 85.402-10.453 23.478-34.498 36.181-56.664 31.363 2.67 1.851 5.542 3.49 8.619 4.86 26.555 11.823 57.667-.119 69.49-26.675 13.423-30.148 10.134-80.695-16.422-92.518z" fill="#ffdecf"/><path d="m240.621 336.6c-29.068 0-52.633 44.839-52.633 77.84 0 29.068 23.565 52.633 52.633 52.633s52.633-23.565 52.633-52.633c0-33.001-23.565-77.84-52.633-77.84z" fill="#ffeee5"/><path d="m240.621 336.6c-3.367 0-6.659.608-9.851 1.724 22.211 8.512 39.009 46.939 39.009 76.117 0 25.7-16.799 47.085-39.009 51.699 3.192.605 6.482.934 9.851.934 29.068 0 52.633-23.564 52.633-52.633 0-33.002-23.564-77.841-52.633-77.841z" fill="#ffdecf"/><g fill="#f9f7f7"><path d="m398.731 278.432h-8.121c-4.204 0-7.611-3.408-7.611-7.611 0-4.204 3.407-7.611 7.611-7.611h8.121c4.204 0 7.611 3.408 7.611 7.611s-3.407 7.611-7.611 7.611z"/><path d="m398.731 315.783h-8.121c-4.204 0-7.611-3.408-7.611-7.611 0-4.204 3.407-7.611 7.611-7.611h8.121c4.204 0 7.611 3.408 7.611 7.611s-3.407 7.611-7.611 7.611z"/><path d="m398.731 353.134h-8.121c-4.204 0-7.611-3.408-7.611-7.611 0-4.204 3.407-7.611 7.611-7.611h8.121c4.204 0 7.611 3.408 7.611 7.611s-3.407 7.611-7.611 7.611z"/><path d="m398.731 390.485h-8.121c-4.204 0-7.611-3.408-7.611-7.611 0-4.204 3.407-7.611 7.611-7.611h8.121c4.204 0 7.611 3.408 7.611 7.611s-3.407 7.611-7.611 7.611z"/></g></g></svg>