<?xml version="1.0" encoding="UTF-8"?>
<svg xmlns="http://www.w3.org/2000/svg" viewBox="0 0 64 64" width="512" height="512"><g id="Layer_30" data-name="Layer 30"><path d="M32,2A30,30,0,1,0,62,32,30,30,0,0,0,32,2Zm0,54A24,24,0,1,1,56,32,24,24,0,0,1,32,56Z" style="fill:#c93d4a"/><path d="M47,47l-.948-7.586A6.6,6.6,0,0,1,46,38.583h0a6.7,6.7,0,0,1,.708-3h0A12.233,12.233,0,0,0,48,30.11V25H36v5.11a12.233,12.233,0,0,0,1.292,5.474h0a6.7,6.7,0,0,1,.708,3h0a6.6,6.6,0,0,1-.052.831L37,47Z" style="fill:#f9cb5d"/><path d="M46,38.583a6.7,6.7,0,0,1,.708-3A12.233,12.233,0,0,0,48,30.11V25H40v5.11a12.233,12.233,0,0,0,1.292,5.474,6.7,6.7,0,0,1,.708,3,6.6,6.6,0,0,1-.052.831L41,47h6l-.948-7.586A6.6,6.6,0,0,1,46,38.583Z" style="fill:#ffd98c"/><path d="M25,47H19a3,3,0,0,1-3-3V28h0a4.828,4.828,0,0,1,1.414-3.414L19,23V21.162A19.5,19.5,0,0,1,20,15h4a19.5,19.5,0,0,1,1,6.162V23l1.586,1.586c.043.043.085.087.127.132Z" style="fill:#383838"/><path d="M26.586,24.586,25,23V21.162A19.5,19.5,0,0,0,24,15H22.287a19.5,19.5,0,0,0-1,6.162V23L19.7,24.586A4.828,4.828,0,0,0,18.287,28V44a3,3,0,0,0,3,3H25l1.713-22.282C26.671,24.673,26.629,24.629,26.586,24.586Z" style="fill:#4c4c4c"/><rect x="16" y="29" width="11" height="10" style="fill:#e6e6e6"/><polygon points="18.287 39 25.615 39 26.384 29 18.287 29 18.287 39" style="fill:#f2f2f2"/><path d="M35,8v8a15.575,15.575,0,0,0,1.114,5.785l2.143,5.358A10.381,10.381,0,0,1,39,31V48a3,3,0,0,1-3,3H28a3,3,0,0,1-3-3V31h0a10.381,10.381,0,0,1,.743-3.857l2.143-5.358A15.575,15.575,0,0,0,29,16h0V8a2,2,0,0,1,2-2h2A2,2,0,0,1,35,8Z" style="fill:#009245"/><path d="M39,48V31a10.381,10.381,0,0,0-.743-3.857l-2.143-5.358A15.575,15.575,0,0,1,35,16V8a2,2,0,0,0-4,0v8a15.575,15.575,0,0,1-1.114,5.785l-2.143,5.358A10.381,10.381,0,0,0,27,31V48a3,3,0,0,0,3,3h6A3,3,0,0,0,39,48Z" style="fill:#39b54a"/><path d="M39,38h0a2,2,0,0,0-2-2H27a2,2,0,0,0-2,2h0v6h0a2,2,0,0,0,2,2H37a2,2,0,0,0,2-2h0Z" style="fill:#fcb732"/><path d="M37,36H27V46H37a2,2,0,0,0,2-2V38A2,2,0,0,0,37,36Z" style="fill:#f9cb5d"/><rect x="29" y="12" width="6" height="4" style="fill:#fcb732"/><rect x="19" y="9" width="6" height="6" style="fill:#e6e6e6"/><path d="M21,9.649A3.351,3.351,0,0,0,24.351,13H25V9H21Z" style="fill:#f2f2f2"/><rect x="31" y="12" width="4" height="4" style="fill:#f9cb5d"/><path d="M18.094,51.563,51.563,18.094,52,12l-6.094.438L12.437,45.906,12,52Z" style="fill:#c93d4a"/></g></svg>
