<svg height="512" viewBox="0 0 64 64" width="512" xmlns="http://www.w3.org/2000/svg"><g id="_19-sauce" data-name="19-sauce"><path d="m27 35v16a4 4 0 0 1 -4 4h-14a4 4 0 0 1 -4-4v-16a4 4 0 0 1 4-4h14a4 4 0 0 1 4 4zm-6.77 13a2.783 2.783 0 0 0 2.77-2.8 2.612 2.612 0 0 0 -2.31-2.4s-2.77.4-2.77-1.2-3.27-1.6-3.27-1.6c-2.29 0-3.65 1.43-3.65 3.2 0 2.65 1.65 4.8 3.69 4.8z" fill="#e8e4dc"/><path d="m9 55h14a4 4 0 0 0 4-4v5.62a1.992 1.992 0 0 1 -1.55 1.95 26.876 26.876 0 0 1 -5.45.43l-2-1h-4l-2 1a26.876 26.876 0 0 1 -5.45-.43 1.992 1.992 0 0 1 -1.55-1.95v-5.62a4 4 0 0 0 4 4z" fill="#4d2829"/><path d="m17.92 41.6c0 1.6 2.77 1.2 2.77 1.2a2.612 2.612 0 0 1 2.31 2.4 2.783 2.783 0 0 1 -2.77 2.8h-5.54c-2.04 0-3.69-2.15-3.69-4.8 0-1.77 1.36-3.2 3.65-3.2 0 0 3.27 0 3.27 1.6z" fill="#ea735c"/><path d="m10 17h12l-1 3h-10z" fill="#4d2829"/><path d="m21 1v4h-1-8-1v-4z" fill="#a0968c"/><path d="m22 10.77v6.23h-12v-6.23a4.032 4.032 0 0 1 .29-1.49l1.71-4.28h8l1.71 4.28a4.032 4.032 0 0 1 .29 1.49z" fill="#6b362c"/><path d="m31 29.92v27.08a6 6 0 0 1 -6 6h-18a6 6 0 0 1 -6-6v-27.08a4 4 0 0 1 1.5-3.12l8.5-6.8h10l8.5 6.8a4 4 0 0 1 1.5 3.12zm-4 26.7v-21.62a4 4 0 0 0 -4-4h-14a4 4 0 0 0 -4 4v21.62a1.992 1.992 0 0 0 1.55 1.95 26.876 26.876 0 0 0 5.45.43l2-1h4l2 1a26.876 26.876 0 0 0 5.45-.43 1.992 1.992 0 0 0 1.55-1.95z" fill="#6b362c"/><path d="m20.69 42.8s-2.77.4-2.77-1.2-3.27-1.6-3.27-1.6c-2.29 0-3.65 1.43-3.65 3.2 0 2.65 1.65 4.8 3.69 4.8h5.54a2.783 2.783 0 0 0 2.77-2.8 2.612 2.612 0 0 0 -2.31-2.4zm-.46 4.2h-5.54c-1.458 0-2.69-1.74-2.69-3.8 0-1.337 1.04-2.2 2.65-2.2 1.148 0 2.27.379 2.27.6a1.993 1.993 0 0 0 .695 1.553 4.379 4.379 0 0 0 3.122.65 1.67 1.67 0 0 1 1.263 1.397 1.788 1.788 0 0 1 -1.77 1.8z" fill="#bd4c3d"/><path d="m11 1h10v1h-10z" fill="#cdc3b4"/><g fill="#918778"><path d="m11 2h1v2h-1z"/><path d="m13 2h1v2h-1z"/><path d="m15 2h1v2h-1z"/><path d="m19 2h1v2h-1z"/><path d="m17 2h1v2h-1z"/></g><circle cx="15" cy="44" fill="#ffd0c9" r="1"/><path d="m23 32h-14a3 3 0 0 0 -3 3v16a3 3 0 0 0 3 3h14a3 3 0 0 0 3-3v-16a3 3 0 0 0 -3-3zm-2.77 16h-5.54c-2.04 0-3.69-2.15-3.69-4.8 0-1.77 1.36-3.2 3.65-3.2 0 0 3.27 0 3.27 1.6s2.77 1.2 2.77 1.2a2.612 2.612 0 0 1 2.31 2.4 2.783 2.783 0 0 1 -2.77 2.8z" fill="#ff9873"/><path d="m13 17h-3l1 3h3z" fill="#331a1b"/><path d="m13 13a4 4 0 0 1 4-4h4.6l-1.6-4h-8l-1.71 4.28a4.032 4.032 0 0 0 -.29 1.49v6.23h3z" fill="#4d271f"/><path d="m25 59h-14c-.172 0-.342-.012-.511-.026a22.942 22.942 0 0 1 -3.939-.4 1.992 1.992 0 0 1 -1.55-1.954v-25.963a4 4 0 0 1 1.172-2.829l7.828-7.828h-3l-8.5 6.8a4 4 0 0 0 -1.5 3.12v27.08a6 6 0 0 0 6 6h18a6 6 0 0 0 6-6v-4a6 6 0 0 1 -6 6z" fill="#4d271f"/><path d="m30.013 29.361a3.033 3.033 0 0 0 .317-1.612 3.945 3.945 0 0 0 -.83-.949l-8.491-6.793a1.993 1.993 0 0 0 -1.789 1.079 2.076 2.076 0 0 0 .668 2.579l.265.2a1.742 1.742 0 0 1 -1.046 3.135 2.075 2.075 0 0 0 -2.08 1.664 2 2 0 0 0 1.973 2.336h8.17a3.154 3.154 0 0 0 2.843-1.639z" fill="#8a4539"/><rect fill="#8a4539" height="18" rx="2" width="4" x="27" y="34"/><rect fill="#8a4539" height="4" rx="2" width="7" x="9" y="27"/><rect fill="#8a4539" height="6" rx="1.5" width="3" x="19" y="11"/><ellipse cx="22.58" cy="34.695" fill="#f6fafd" rx="1.642" ry="2.286" transform="matrix(.707 -.707 .707 .707 -17.922 26.142)"/><ellipse cx="21.577" cy="38.708" fill="#f6fafd" rx=".825" ry="1.148" transform="matrix(.707 -.707 .707 .707 -21.055 26.609)"/><path d="m33 60h12v3h-12z" fill="#cdc3b4"/><path d="m33 57h12v3h-12z" fill="#ede9e1"/><path d="m50 48.49a2.106 2.106 0 0 1 -1.18 1.82 8.173 8.173 0 0 0 -3.82 6.69h-12a8.173 8.173 0 0 0 -3.82-6.69 2.106 2.106 0 0 1 -1.18-1.82v-1.49c0 1.66 4.92 3 11 3s11-1.34 11-3z" fill="#e7aa2f"/><path d="m47.84 29.01c.01-3.49.16-6.01.16-6.01v-2a4 4 0 0 0 -4-4h-10a4 4 0 0 0 -4 4v2s.15 2.52.16 6.02c.02 5.59-.32 13.68-2.16 17.98 0 1.66 4.92 3 11 3s11-1.34 11-3c-1.85-4.31-2.18-12.4-2.16-17.99zm-5.84 12.99h-6l-3-13h1l-1-4h2c0-1.11 1.24-3 4-3s4 1.89 4 3h2l-1 4h1z" fill="#ffcf4f"/><path d="m45 29-3 13h-6l-3-13h1l-1-4h2c0-1.11 1.24-3 4-3s4 1.89 4 3h2l-1 4z" fill="#f7f3eb"/><path d="m43 25c0-1.11-1.24-3-4-3s-4 1.89-4 3h-2l1 4h-1l3 13h6l3-13h-1l1-4zm-1.8 16h-4.4l-2.55-11.031a1 1 0 0 0 .72-1.211l-.689-2.758h.719a1 1 0 0 0 1-1c0-.513.739-2 3-2s3 1.487 3 2a1 1 0 0 0 1 1h.719l-.689 2.758a1 1 0 0 0 .72 1.211z" fill="#ff9b54"/><path d="m33.18 50.31a2.3 2.3 0 0 1 -.941-.945c-2.577-.549-4.239-1.402-4.239-2.365v1.49a2.106 2.106 0 0 0 1.18 1.82 8.173 8.173 0 0 1 3.82 6.69h4a8.173 8.173 0 0 0 -3.82-6.69z" fill="#e79d2f"/><path d="m32.239 49.365a1.858 1.858 0 0 1 -.239-.875v-1.49c1.369-3.2 1.907-8.495 2.085-13.3l-1.085-4.7h1l-1-4h1.087c-.043-1.248-.087-2-.087-2v-2a4 4 0 0 1 4-4h-4a4 4 0 0 0 -4 4v2s.15 2.52.16 6.02c.02 5.59-.32 13.68-2.16 17.98 0 .963 1.662 1.816 4.239 2.365z" fill="#f4be2b"/><path d="m36 58h6v2h-6z" fill="#cdc3b4"/><path d="m33 62h12v1h-12z" fill="#e7aa2f"/><path d="m43.041 45.8a4.844 4.844 0 0 0 -2.26 1.005.807.807 0 0 0 -.24.457.692.692 0 0 0 .3.591 1.776 1.776 0 0 0 .636.263 9.151 9.151 0 0 0 4.016.108 4.5 4.5 0 0 0 1.595-.589 2.245 2.245 0 0 0 1-1.338 1.8 1.8 0 0 0 -.429-1.6 1.534 1.534 0 0 0 -2.04-.293 8.392 8.392 0 0 1 -2.578 1.396z" fill="#ffe296"/><path d="m41.316 17.985a3.019 3.019 0 0 0 -1.191.2 1.225 1.225 0 0 0 -.745.895c-.083.605.422 1.115.891 1.507q.773.646 1.573 1.261a5 5 0 0 0 3.119 1.315 2.131 2.131 0 0 0 1.477-.663 2.526 2.526 0 0 0 .475-1.74 1.976 1.976 0 0 0 -.753-1.473 4.07 4.07 0 0 0 -1.462-.867 9.629 9.629 0 0 0 -3.384-.435z" fill="#ffe296"/><path d="m55 17 2 8h-6l2-8z" fill="#ea735c"/><path d="m45 38h18v18h-18zm9 15a5 5 0 0 0 5-5c0-2.76-2.24-4-5-4s-5 1.24-5 4a5 5 0 0 0 5 5z" fill="#e8e4dc"/><path d="m63 31v7h-18v-7a2.006 2.006 0 0 1 2-2h14a2.006 2.006 0 0 1 2 2z" fill="#ea735c"/><path d="m54 44c2.76 0 5 1.24 5 4a5 5 0 0 1 -10 0c0-2.76 2.24-4 5-4z" fill="#e84655"/><path d="m60 27v2h-12v-2a2.006 2.006 0 0 1 2-2h8a2.006 2.006 0 0 1 2 2z" fill="#e8e4dc"/><path d="m63 56v5a2.006 2.006 0 0 1 -2 2h-14a2.006 2.006 0 0 1 -2-2v-5z" fill="#ea735c"/><path d="m55 51a5 5 0 0 1 -5-5 4.377 4.377 0 0 1 .071-.676 3.579 3.579 0 0 0 -1.071 2.676 4.993 4.993 0 0 0 9.855 1.147 4.967 4.967 0 0 1 -3.855 1.853z" fill="#c43b48"/><path d="m58 27h-8a2 2 0 0 1 -1.721-1 1.975 1.975 0 0 0 -.279 1v2h12v-2a1.975 1.975 0 0 0 -.279-1 2 2 0 0 1 -1.721 1z" fill="#d6cec1"/><path d="m54.153 24a1 1 0 0 1 -.99-1.141l.837-5.859h-1l-2 8h6l-.25-1z" fill="#bd4c3d"/><path d="m49.866 50.809a4.971 4.971 0 0 1 -.866-2.809 4.422 4.422 0 0 1 .068-.648c-.042-.445-.068-.895-.068-1.352v-8h-4v18h8.211a14 14 0 0 1 -3.345-5.191z" fill="#d6cec1"/><path d="m49 31a2 2 0 0 1 2-2h-4a2.006 2.006 0 0 0 -2 2v7h4z" fill="#bd4c3d"/><path d="m45 56v5a2.006 2.006 0 0 0 2 2h14a2.006 2.006 0 0 0 2-2v-1a13.948 13.948 0 0 1 -9.789-4z" fill="#bd4c3d"/><path d="m54.5 42.411v-2.411h-1v2.157a7.025 7.025 0 0 0 -3.5-.657v1c3.084 0 3.5.758 3.5 1.5h1c0-.708 1.5-1.5 3.5-1.5v-1a6.283 6.283 0 0 0 -3.5.911z" fill="#537134"/><path d="m59 39a2 2 0 0 0 4 0v-1h-4z" fill="#f7f3eb"/><path d="m60 29h-4.893a2.075 2.075 0 0 0 -2.08 1.664 2 2 0 0 0 1.973 2.336h2a2 2 0 0 1 2 2v3h4v-6a3 3 0 0 0 -3-3z" fill="#ff7d64"/><path d="m61 42a2 2 0 0 0 -2 2v2a2 2 0 0 0 4 0v-2a2 2 0 0 0 -2-2z" fill="#f7f3eb"/><ellipse cx="60.58" cy="31.695" fill="#f6fafd" rx="1.642" ry="2.286" transform="matrix(.707 -.707 .707 .707 -4.661 52.142)"/><ellipse cx="56.577" cy="46.708" fill="#f6fafd" rx=".825" ry="1.148" transform="matrix(.707 -.707 .707 .707 -16.454 53.712)"/></g></svg>