<svg id="Layer_1" enable-background="new 0 0 500 500" viewBox="0 0 500 500" xmlns="http://www.w3.org/2000/svg"><g clip-rule="evenodd" fill-rule="evenodd"><g><path d="m265.328 425.714 154.942-89.834-.001-106.496-154.942 89.834z" fill="#dca860"/><path d="m391.916 323.212 7.698-4.463v7.355c0 2.263-1.464 4.998-3.307 6.381v8.173l2.385-1.383v1.194l-5.855 3.395v-1.194l2.44-1.415v-8.172c-1.898.786-3.361-.252-3.361-2.515zm-9.325 5.469c2.928-1.698 5.421-1.069 6.451 1.289-.705-.157-1.355.031-2.06 1.194-.705-.22-1.41.126-2.006 1.163-.651 0-1.355.157-2.06.503v13.705c0 .628.217 1.006.596 1.226.325.189.813.157 1.356-.157.542-.315 1.03-.849 1.355-1.415s.542-1.194.542-1.76l.759-.44c-.054.786-.325 1.698-.813 2.483-.434.817-1.138 1.603-1.843 2.012s-1.41.44-1.844.126c-.488-.283-.813-.849-.813-1.666v-13.705c-.651.44-1.355 1.037-2.06 1.886-.651-.503-1.301-.063-1.952 1.132-.705-.283-1.355.22-2.06 1.195 1.031-3.553 3.525-7.074 6.452-8.771zm20.981 8.959 9.867-5.721v-1.194l-9.867 5.721zm3.362-4.149v-13.705l1.138-.66-1.626-4.338-1.68 6.255 1.138-.66v13.705zm4.119-2.389v-13.705l1.193-.691-1.68-4.307-1.681 6.255 1.193-.691v13.705z" fill="#40484c"/><path d="m265.327 319.218 154.94-89.837-154.94-89.838-154.94 89.838z" fill="#ce9c6a"/><path d="m59.97 164.124 154.939-89.838 50.418 65.257-154.94 89.838z" fill="#edc990"/><path d="m265.327 321.099v-1.881l154.94-87.956 49.119-8.701v1.881l-154.939 89.838z" fill="#cfa472"/><path d="m110.384 335.88 154.942 89.834.001-106.496-154.942-89.834z" fill="#bb7b3f"/><path d="m25 246.355 154.942 89.834 85.385-14.964v-2.007l-154.942-87.827-85.385 12.957z" fill="#a88260"/><path d="m265.327 139.55 154.942 89.834 54.731-65.264-154.942-89.834z" fill="#edc990"/><path d="m265.327 319.218 154.94-89.837 49.119-6.82-154.939 89.838z" fill="#edc990"/><path d="m314.447 312.399v1.881l-49.12 6.819v-1.881z" fill="#b78e65"/><path d="m265.327 139.55v79.084l-89.155 48.893-65.787-38.143z" fill="#dda962"/><path d="m265.327 139.55v79.084l85.133 52.256 69.807-41.509z" fill="#bb7b3f"/><path d="m265.327 139.543-16.556 83.752-78.359 40.994 5.76 3.238 89.155-48.893z" fill="#c58a4b"/><path d="m25 244.348 154.942 89.834 85.385-14.964-154.942-89.834z" fill="#edc990"/><path d="m59.97 164.124v2.63l48.568 62.954 1.847-.324z" fill="#a88260"/></g><path d="m270.153 390.037 25.751-14.93c.379-.22.705-.031.705.471v26.97c0 .503-.325 1.069-.705 1.289l-25.751 14.93c-.379.22-.705.031-.705-.471v-26.97c0-.503.325-1.069.705-1.289z" fill="#c8b095"/><path d="m271.346 391.546 23.366-13.547v24.266l-23.366 13.548z" fill="#ecccae"/><path d="m475 164.12v2.843l-52.583 62.119-2.15.299z" fill="#c58a4b"/></g></svg>