<svg id="Capa_1" enable-background="new 0 0 510 510" height="512" viewBox="0 0 510 510" width="512" xmlns="http://www.w3.org/2000/svg" xmlns:xlink="http://www.w3.org/1999/xlink"><linearGradient id="lg1"><stop offset="0" stop-color="#fff7f0"/><stop offset="1" stop-color="#ffdfcf"/></linearGradient><linearGradient id="SVGID_1_" gradientUnits="userSpaceOnUse" x1="51.364" x2="129.297" xlink:href="#lg1" y1="147.059" y2="224.992"/><linearGradient id="lg2"><stop offset="0" stop-color="#f89580" stop-opacity="0"/><stop offset=".2608" stop-color="#f2917c" stop-opacity=".262"/><stop offset=".5874" stop-color="#e38670" stop-opacity=".589"/><stop offset=".9476" stop-color="#ca735d" stop-opacity=".95"/><stop offset=".9972" stop-color="#c5715a"/></linearGradient><linearGradient id="SVGID_2_" gradientUnits="userSpaceOnUse" x1="105.111" x2="105.111" xlink:href="#lg2" y1="231.013" y2="298.909"/><linearGradient id="SVGID_3_" gradientUnits="userSpaceOnUse" x1="133.804" x2="466.05" y1="188.214" y2="520.46"><stop offset="0" stop-color="#fee97d"/><stop offset="1" stop-color="#fe860a"/></linearGradient><linearGradient id="lg3"><stop offset="0" stop-color="#fe7701" stop-opacity="0"/><stop offset=".193" stop-color="#f87105" stop-opacity=".193"/><stop offset=".447" stop-color="#e76010" stop-opacity=".447"/><stop offset=".7336" stop-color="#cc4522" stop-opacity=".734"/><stop offset="1" stop-color="#ac2538"/></linearGradient><linearGradient id="SVGID_4_" gradientUnits="userSpaceOnUse" x1="434.71" x2="354.043" xlink:href="#lg3" y1="385.018" y2="243.018"/><linearGradient id="SVGID_5_" gradientUnits="userSpaceOnUse" x1="255" x2="255" xlink:href="#lg3" y1="364" y2="515.476"/><linearGradient id="lg4"><stop offset="0" stop-color="#fff"/><stop offset="1" stop-color="#eaf6ff"/></linearGradient><linearGradient id="SVGID_6_" gradientUnits="userSpaceOnUse" x1="129.469" x2="209.737" xlink:href="#lg4" y1="350.179" y2="350.179"/><linearGradient id="SVGID_7_" gradientUnits="userSpaceOnUse" x1="197.058" x2="298.001" xlink:href="#lg4" y1="349.658" y2="349.658"/><linearGradient id="SVGID_8_" gradientUnits="userSpaceOnUse" x1="289.144" x2="380.531" xlink:href="#lg4" y1="350.179" y2="350.179"/><linearGradient id="SVGID_9_" gradientUnits="userSpaceOnUse" x1="297.252" x2="408.881" xlink:href="#lg1" y1="80.748" y2="192.377"/><linearGradient id="SVGID_10_" gradientUnits="userSpaceOnUse" x1="374.239" x2="374.239" xlink:href="#lg2" y1="201" y2="298.252"/><linearGradient id="SVGID_11_" gradientUnits="userSpaceOnUse" x1="364.768" x2="346.768" y1="309.579" y2="200.079"><stop offset="0" stop-color="#8ac9fe" stop-opacity="0"/><stop offset=".235" stop-color="#7cb5de" stop-opacity=".235"/><stop offset=".7549" stop-color="#5f8a9d" stop-opacity=".755"/><stop offset="1" stop-color="#537983"/></linearGradient><g><g><path d="m126.196 115.082c-6.047-3.766-10.805-9.245-13.634-15.783-2.338-5.404-4.844-8.614-7.451-8.614s-5.113 3.21-7.451 8.614c-2.829 6.538-7.587 12.017-13.634 15.783-31.148 19.398-49.804 70.636-49.804 99.11 0 34.588 29.476 68.771 70.888 68.771 41.413 0 70.888-34.183 70.888-68.771.002-28.473-18.654-79.712-49.802-99.11z" fill="url(#SVGID_1_)"/><path d="m34.223 214.193c0 34.589 29.476 68.771 70.888 68.771 41.413 0 70.888-34.183 70.888-68.771 0-3.804-.336-8.016-.987-12.502h-139.802c-.651 4.485-.987 8.698-.987 12.502z" fill="url(#SVGID_2_)"/></g><path d="m306.479 100.11c-14.764-9.194-26.381-22.572-33.287-38.535-5.709-13.194-11.828-21.032-18.192-21.032s-12.483 7.837-18.192 21.031c-6.907 15.963-18.523 29.34-33.287 38.535-76.049 47.361-121.598 172.462-121.598 241.983 0 84.449 71.966 167.908 173.077 167.908 101.11 0 173.077-83.459 173.077-167.908 0-69.521-45.549-194.621-121.598-241.982z" fill="url(#SVGID_3_)"/><path d="m425.638 369.138c1.604-8.937 2.438-17.986 2.438-27.047 0-26.625-6.688-61.402-19.204-96.842h-107.122z" fill="url(#SVGID_4_)"/><path d="m81.923 342.092c0 84.449 71.966 167.908 173.077 167.908 101.11 0 173.077-83.459 173.077-167.908 0-9.447-.848-19.926-2.492-31.092h-341.17c-1.644 11.165-2.492 21.645-2.492 31.092z" fill="url(#SVGID_5_)"/><g><path d="m129.469 295.016c0-5.56 5.907-8.34 11.815-8.34h60.287c5.734 0 8.166 6.081 8.166 11.641 0 6.428-2.954 11.988-8.166 11.988h-44.999v29.362h26.235c5.213 0 8.166 5.039 8.166 10.598 0 4.691-2.432 10.251-8.166 10.251h-26.235v44.825c0 5.56-6.776 8.34-13.551 8.34-6.776 0-13.552-2.781-13.552-8.34z" fill="url(#SVGID_6_)"/><path d="m197.058 402.562c0-.521.174-1.217.347-1.911l32.316-105.982c1.911-6.081 9.73-9.034 17.721-9.034 7.992 0 15.811 2.953 17.722 9.034l32.489 105.982c.174.694.347 1.39.347 1.911 0 6.428-9.903 11.119-17.373 11.119-4.343 0-7.818-1.39-8.861-5.039l-5.908-21.718h-36.658l-5.907 21.718c-1.042 3.648-4.517 5.039-8.861 5.039-7.471 0-17.374-4.691-17.374-11.119zm63.068-36.486-12.684-46.562-12.683 46.562z" fill="url(#SVGID_7_)"/><path d="m372.365 286.677c5.734 0 8.166 6.255 8.166 11.988 0 6.602-2.953 12.336-8.166 12.336h-23.976v94.341c0 5.56-6.776 8.34-13.551 8.34-6.776 0-13.552-2.781-13.552-8.34v-94.342h-23.976c-5.212 0-8.166-5.734-8.166-12.336 0-5.733 2.432-11.988 8.166-11.988h75.055z" fill="url(#SVGID_8_)"/></g><g><path d="m404.44 34.946c-8.661-5.394-15.477-13.242-19.529-22.607-3.349-7.741-6.939-12.339-10.672-12.339-3.734 0-7.323 4.598-10.673 12.338-4.052 9.365-10.867 17.213-19.528 22.607-44.615 27.785-71.338 101.178-71.338 141.963 0 49.543 42.22 98.506 101.538 98.506s101.538-48.963 101.538-98.506c.001-40.785-26.721-114.177-71.336-141.962z" fill="url(#SVGID_9_)"/><path d="m272.7 176.908c0 49.543 42.22 98.506 101.538 98.506s101.538-48.962 101.538-98.506c0-5.448-.481-11.482-1.414-17.908h-200.247c-.933 6.426-1.415 12.459-1.415 17.908z" fill="url(#SVGID_10_)"/></g><path d="m367.5 311h4.865c5.212 0 8.166-5.734 8.166-12.336 0-5.733-2.432-11.988-8.166-11.988h-29.189z" fill="url(#SVGID_11_)"/></g></svg>