<svg id="Capa_1" enable-background="new 0 0 512 512" height="512" viewBox="0 0 512 512" width="512" xmlns="http://www.w3.org/2000/svg"><g><path d="m182.958 396.45-69.521-69.521 34.286-34.286c13.209-13.209 32.042-19.122 50.43-15.835l20.019 3.579c5.775 1.032 10.295 5.553 11.328 11.328l3.579 20.019c3.287 18.388-2.626 37.222-15.835 50.43z" fill="#fd9468"/><path d="m233.078 311.734-3.579-20.019c-1.033-5.775-5.553-10.295-11.328-11.327l-20.019-3.579c-7.026-1.256-14.115-1.159-20.933.165l19.094 3.414c5.775 1.032 10.295 5.553 11.328 11.327l3.579 20.019c3.287 18.388-2.626 37.222-15.835 50.43l-23.357 23.357 10.929 10.929 34.286-34.286c13.209-13.208 19.123-32.042 15.835-50.43z" fill="#fe7d43"/><path d="m222.254 387.927c-12.257 12.493-39.13 32.653-81.621 27.682-4.489-.523-8.978 1.015-12.175 4.212l-83.794 83.804c-8.363 8.353-21.912 8.353-30.265 0l-2.726-2.726-5.401-5.411c-8.363-8.353-8.363-21.901 0-30.265l83.794-83.794c3.198-3.197 4.735-7.687 4.212-12.175-4.161-35.573 9.285-60.191 21.102-74.457 2.306-2.778 4.54-5.165 6.58-7.164 4.54-4.468 12.155-2.623 14.164 3.423 5.606 16.921 4.058 34.015 2.521 43.116-.389 2.265 2.132 3.823 4.017 2.542.021-.01.031-.021.031-.021 7.707-5.381 16.255-9.439 24.074-12.422 4.325-1.65 8.435-2.972 12.063-4.017 6.477-1.876 12.452 4.151 10.556 10.628-3.198 10.884-8.507 25.858-15.814 36.239-1.332 1.886.236 4.438 2.511 4.058 9.193-1.517 26.052-2.952 42.747 2.583 6.048 2.009 7.892 9.624 3.424 14.165z" fill="#9e9797"/><g fill="#8c8383"><path d="m142.662 336.714c-.338.236-3.187 2.152-8.742 3.443-3.341.779-12.872.728-12.872.728-2.859 0-5.012-2.593-4.499-5.401 1.486-8.097 3.321-24.187-1.168-40.687 2.306-2.778 4.54-5.165 6.58-7.164 4.54-4.468 12.155-2.623 14.164 3.423 5.606 16.921 4.058 34.015 2.521 43.116-.391 2.265 2.131 3.823 4.016 2.542z"/><path d="m222.254 387.927c-12.257 12.493-39.13 32.653-81.621 27.682-4.489-.523-8.978 1.015-12.175 4.212l-83.794 83.804c-8.363 8.353-21.912 8.353-30.265 0l-2.726-2.726c7.318 2.224 15.599.451 21.389-5.329l75.082-77.183c2.203-2.275 5.227-3.556 8.394-3.556 6.344-.041 15.055-.41 17.156-.236 40.206 3.321 54.82-14.563 66.699-26.657 4.468-4.55 2.624-12.165-3.423-14.174-13.282-4.407-18.376-1.548-27.959-1.096-4.038.184-9.89.174-14.522.123-2.859-.031-4.489-3.249-2.839-5.575 7.338-10.382 12.668-25.396 15.875-36.322.697-2.388.318-4.725-.758-6.621 4.325-1.65 8.435-2.972 12.063-4.017 6.477-1.876 12.452 4.151 10.556 10.628-3.198 10.884-8.507 25.858-15.814 36.239-1.332 1.886.236 4.438 2.511 4.058 9.193-1.517 26.052-2.952 42.747 2.583 6.048 2.007 7.892 9.622 3.424 14.163z"/></g><g id="_x3C_Radial_Repeat_x3E__28_"><g><path d="m414.499 222.112c0 19.135-13.374 44.305-22.24 58.869h-15.373c-1.845-3.024-3.884-6.518-5.944-10.31-7.902-14.461-16.295-33.401-16.295-48.559 0-16.5 9.941-41.538 18.366-59.801 6.19-13.416 11.561-23.162 11.561-23.162s29.925 54.339 29.925 82.963z" fill="#fd9468"/></g></g><path d="m414.499 222.112c0 19.135-13.374 44.305-22.24 58.869h-15.373c-1.845-3.024-3.884-6.518-5.944-10.31 1.763-.215 3.454-1.291 4.684-3.228 8.609-13.62 15.752-24.413 15.752-45.33 0-16.49-9.941-41.538-18.366-59.791v-.01c6.19-13.416 11.561-23.162 11.561-23.162s29.926 54.338 29.926 82.962z" fill="#fe7d43"/><g><path d="m392.26 188.056-.432 34.856-1.563 32.193-13.378 10.35v-77.398c0-2.993 1.711-5.596 4.222-6.846 1.035-.543 2.214-.84 3.464-.84 4.243-.002 7.687 3.442 7.687 7.685z" fill="#cdbfba"/></g><path d="m392.26 188.056v92.925c-.83 1.353-1.609 2.623-2.347 3.782-2.757 4.376-7.912 4.376-10.679 0-.738-1.158-1.517-2.429-2.347-3.782v-15.527c8.035-12.719 14.492-23.449 14.492-43.342 0-11.274-4.642-26.534-10.269-40.903 1.035-.543 2.214-.84 3.464-.84 4.242 0 7.686 3.444 7.686 7.687z" fill="#b9acac"/><g id="_x3C_Radial_Repeat_x3E__27_"><g><path d="m389.472 141.978s-16.367 27.067-34.754 47.759c-7.359 8.281-15.045 15.547-22.127 19.637-16.634 9.603-45.259 10.577-62.292 10.177l-7.4-13.487c8.199-14.974 23.254-38.996 39.755-48.528 2.665-1.537 5.749-2.921 9.152-4.171 28.247-10.393 77.666-11.387 77.666-11.387z" fill="#fd9468"/></g></g><path d="m389.472 141.981s-16.367 27.067-34.753 47.759c-.195.102-.39.205-.574.318-2.337 1.363-4.858 1.998-7.338 1.998-6.334 0-12.35-4.171-14.113-10.884-.666-2.552-1.998-4.817-3.792-6.61-1.794-1.804-4.059-3.126-6.6-3.792-6.713-1.752-10.884-7.769-10.884-14.113 0-1.097.123-2.203.389-3.29 28.245-10.392 77.665-11.386 77.665-11.386z" fill="#fe7d43"/><g><path d="m332.981 182.132-62.681 37.418c-1.517-.041-2.941-.092-4.263-.143-5.165-.205-7.748-4.673-5.34-9.244.666-1.261 1.394-2.634 2.203-4.099l59.217-35.348 13.609 1.764z" fill="#cdbfba"/></g><path d="m355.159 168.891-22.178 13.241c-.102-.318-.205-.635-.287-.963-.666-2.552-1.999-4.817-3.792-6.61-1.794-1.804-4.058-3.126-6.6-3.792-.062-.021-.123-.031-.184-.051l25.355-15.137c3.679-2.122 8.373-.861 10.495 2.818 2.121 3.668.861 8.372-2.809 10.494z" fill="#b9acac"/><g id="_x3C_Radial_Repeat_x3E__26_"><g><path d="m389.472 147.635s-46.273-.933-74.857-10.413c-4.509-1.497-8.578-3.208-11.96-5.155-16.583-9.572-31.689-33.759-39.868-48.722l7.738-13.283c17.054-.389 45.504.605 62.066 10.167 4.694 2.706 9.644 6.805 14.594 11.673 21.195 20.836 42.287 55.733 42.287 55.733z" fill="#fd9468"/></g></g><path d="m389.472 147.638s-46.273-.933-74.857-10.413c-.307-.902-.707-1.773-1.199-2.603-1.363-2.337-1.998-4.858-1.998-7.328 0-6.344 4.171-12.36 10.884-14.113 2.542-.666 4.807-1.999 6.6-3.792 1.794-1.794 3.126-4.068 3.792-6.61 1.763-6.713 7.779-10.884 14.123-10.884.123 0 .246 0 .369.01 21.194 20.836 42.286 55.733 42.286 55.733z" fill="#fe7d43"/><g><path d="m318.131 114.993-55.343-31.648c-.758-1.384-1.455-2.685-2.091-3.895-2.408-4.581.174-9.05 5.34-9.255 1.383-.051 2.88-.102 4.489-.133l61.318 35.071.998 9.859h-14.711z" fill="#cdbfba"/></g><path d="m359.382 129.771c-1.424 2.46-4.007 3.843-6.662 3.843-1.312 0-2.634-.338-3.843-1.035l-30.746-17.587c1.24-.799 2.644-1.414 4.171-1.814 2.542-.666 4.807-1.998 6.6-3.792 1.22-1.22 2.224-2.654 2.941-4.253l24.72 14.133c3.68 2.122 4.94 6.826 2.819 10.505z" fill="#b9acac"/><g id="_x3C_Radial_Repeat_x3E__25_"><g><path d="m414.499 67.5c0 28.625-29.926 82.964-29.926 82.964s-5.37-9.747-11.561-23.162c-8.424-18.263-18.366-43.301-18.366-59.801 0-14.297 7.461-31.955 14.932-46.047 2.532-4.776 5.063-9.142 7.307-12.821h15.373c8.867 14.562 22.241 39.733 22.241 58.867z" fill="#fd9468"/></g></g><path d="m414.499 67.5c0 28.625-29.926 82.964-29.926 82.964s-5.37-9.747-11.561-23.162v-.01c8.424-18.253 18.366-43.301 18.366-59.791 0-20.918-5.022-29.936-13.62-43.557-2.06-3.249-5.442-4.079-8.179-2.49 2.532-4.776 5.063-9.142 7.307-12.821h15.373c8.866 14.562 22.24 39.733 22.24 58.867z" fill="#fe7d43"/><g><path d="m390.938 33.296.866 30.251.456 32.342c0 4.253-3.444 7.687-7.687 7.687-.543 0-1.066-.051-1.578-.164-3.484-.728-6.108-3.812-6.108-7.522v-73.095z" fill="#cdbfba"/></g><path d="m392.26 8.631v87.258c0 4.253-3.444 7.687-7.687 7.687-.543 0-1.066-.051-1.578-.164 4.745-12.831 8.383-25.939 8.383-35.912 0-20.918-5.022-29.936-13.62-43.557-.266-.42-.553-.799-.871-1.148v-14.164c.83-1.353 1.609-2.624 2.347-3.782 2.767-4.376 7.922-4.376 10.679 0 .738 1.159 1.517 2.43 2.347 3.782z" fill="#b9acac"/><g id="_x3C_Radial_Repeat_x3E__24_"><g><path d="m506.656 82.607c-8.107 14.922-23.377 39.58-40.165 49.265-24.146 13.949-83.629 15.496-86.694 15.568-.082 0-.123 0-.123 0s32.099-53.088 56.891-67.406c12.114-6.99 30.593-9.408 46.314-10.044 5.514-.225 10.69-.225 15.137-.133z" fill="#fd9468"/></g></g><path d="m506.656 82.607c-8.107 14.922-23.377 39.58-40.165 49.265-24.146 13.949-83.629 15.496-86.694 15.568.133-.225.379-.635.738-1.209 20.2-1.763 48.097-5.657 62.825-14.164 18.12-10.453 34.477-38.351 41.968-52.617 2.265-4.315.092-8.537-4.489-9.173.687-.031 1.373-.133 2.039-.287 5.514-.225 10.69-.225 15.137-.133z" fill="#fe7d43"/><g><path d="m490.016 86.957-19.343 16.905-50.68 29.66c-1.209.697-2.531 1.035-3.833 1.035-2.655 0-5.237-1.384-6.662-3.843-2.122-3.679-.861-8.384 2.808-10.505l73.852-43.219z" fill="#cdbfba"/></g><path d="m508.449 79.45c-.553 1.045-1.148 2.173-1.794 3.351l-35.983 21.061c6.231-9.009 11.325-18.058 14.656-24.413.441-.83.707-1.66.83-2.46l11.858-6.938c1.835.031 3.546.092 5.104.154 5.155.206 7.738 4.674 5.329 9.245z" fill="#b9acac"/><g id="_x3C_Radial_Repeat_x3E__23_"><g><path d="m506.369 206.278-7.758 13.272c-5.114.113-11.243.113-17.771-.215-15.26-.758-32.683-3.259-44.274-9.951-22.393-12.934-50.762-57.516-56.03-66.002-.379-.615-.636-1.045-.769-1.25-.031-.051-.051-.092-.072-.113-.01-.031-.021-.041-.021-.041s62.025 1.25 86.817 15.568c16.593 9.572 31.7 33.769 39.878 48.732z" fill="#fd9468"/></g></g><path d="m506.369 206.278-7.758 13.272c-5.114.113-11.243.113-17.771-.215 4.581-.646 6.754-4.858 4.489-9.173-7.492-14.266-23.849-42.163-41.958-52.617-14.738-8.507-42.624-12.401-62.835-14.164-.379-.615-.636-1.045-.769-1.25-.031-.051-.051-.092-.072-.113-.01-.031-.021-.041-.021-.041s62.025 1.25 86.817 15.568c16.593 9.573 31.7 33.77 39.878 48.733z" fill="#fe7d43"/><g><path d="m496.216 209.079-10.098 3.318-73.535-42.092c-3.679-2.121-4.94-6.826-2.818-10.495 2.132-3.679 6.826-4.94 10.505-2.818l50.516 28.912z" fill="#cdbfba"/></g><path d="m503.12 219.407c-1.394.062-2.9.102-4.509.143l-12.493-7.154c-.133-.728-.4-1.476-.789-2.234-3.31-6.313-8.373-15.302-14.543-24.259l35.584 20.374c.758 1.384 1.445 2.685 2.08 3.884 2.408 4.572-.175 9.041-5.33 9.246z" fill="#b9acac"/><path d="m391.929 93.899c8.325-4.87 19-.449 21.443 8.882 1.333 5.091 5.309 9.067 10.4 10.4 9.331 2.443 13.752 13.117 8.882 21.442-2.657 4.543-2.657 10.165 0 14.708 4.87 8.325.449 19-8.882 21.442-5.091 1.333-9.067 5.309-10.4 10.4-2.443 9.331-13.117 13.752-21.443 8.882-4.542-2.657-10.165-2.657-14.708 0-8.325 4.87-19 .449-21.442-8.882-1.333-5.091-5.309-9.067-10.4-10.4-9.331-2.443-13.752-13.117-8.882-21.442 2.657-4.542 2.657-10.165 0-14.708-4.87-8.325-.449-19 8.882-21.442 5.091-1.333 9.067-5.309 10.4-10.4 2.443-9.331 13.117-13.752 21.442-8.882 4.542 2.657 10.165 2.657 14.708 0z" fill="#9e9797"/><g><path d="m432.653 134.623c4.87-8.325.449-18.999-8.882-21.442-5.091-1.333-9.067-5.309-10.4-10.4-2.443-9.331-13.117-13.752-21.442-8.882-1.813 1.06-3.798 1.69-5.818 1.905 1.947 1.801 3.443 4.161 4.18 6.977 1.333 5.091 5.309 9.067 10.4 10.4 9.331 2.443 13.752 13.117 8.882 21.442-2.658 4.543-2.658 10.166 0 14.708 4.87 8.325.449 19-8.882 21.443-5.091 1.333-9.067 5.309-10.4 10.4-.738 2.817-2.234 5.176-4.18 6.977 2.02.214 4.005.844 5.818 1.904 8.325 4.87 18.999.449 21.442-8.882 1.333-5.091 5.309-9.067 10.4-10.4 9.331-2.443 13.752-13.117 8.882-21.443-2.658-4.541-2.658-10.164 0-14.707z" fill="#8c8383"/></g><circle cx="233.97" cy="467.069" fill="#fd9468" r="7.672"/><circle cx="264.376" cy="428.325" fill="#fe7d43" r="7.672"/><circle cx="305.792" cy="285.159" fill="#fe7d43" r="7.672"/><path d="m395.444 142.168 2.605-2.605c3.003-3.002 3.003-7.869.001-10.87-3.003-3.002-7.87-3.003-10.87-.001l-2.607 2.606-2.607-2.606c-3.001-3.001-7.868-3.002-10.87.001-3.002 3.002-3.002 7.869.001 10.87l2.605 2.605-2.605 2.605c-3.003 3.002-3.003 7.869-.001 10.87 1.501 1.501 3.468 2.252 5.436 2.252 1.967 0 3.934-.751 5.435-2.251l2.607-2.606 2.607 2.606c1.5 1.5 3.468 2.251 5.435 2.251s3.934-.751 5.436-2.252c3.002-3.002 3.002-7.869-.001-10.87z" fill="#8c8383"/><circle cx="64.287" cy="273.721" fill="#fd9468" r="7.682"/><g><g><path d="m506.492 384.412-11.19 9.691 4.341 9.691c-5.789 13.826-13.67 27.935-23.775 41.373l-18.606 9.691 1.938 9.691c-.388.388-.762.775-1.15 1.163-41.257 41.257-108.317 45.108-136.976 44.694l-3.592-2.261-10.389-8.242.284-7.716c0-32.652 5.091-92.877 44.681-132.467.388-.388.775-.762 1.163-1.15l11.112 1.008 8.27-17.676c13.438-10.104 27.548-17.986 41.373-23.788l9.471 3.993 9.91-10.828c4.303-1.24 8.541-2.261 12.663-3.075 19.537-3.863 36.618-3.062 47.834 2.003l1.628 12.805 12.081.904c6.139 13.579 6.023 35.765-1.071 60.496z" fill="#bbec6c"/></g><path d="m506.492 384.412-11.19 9.691 4.341 9.691c-5.789 13.826-13.67 27.935-23.775 41.373l-18.606 9.691 1.938 9.691c-.388.388-.762.775-1.15 1.163-41.257 41.257-108.317 45.108-136.976 44.694l-3.592-2.261c31.347-4.044 70.665-14.911 98.187-42.433 53.584-53.584 65.109-128.927 44.022-150.014-3.308-3.308-7.972-5.827-13.671-7.481v-.013c19.537-3.863 36.618-3.062 47.834 2.003l1.628 12.805 12.081.904c6.139 13.579 6.023 35.765-1.071 60.496z" fill="#a8e237"/><path d="m447.07 384.411 34.807.001-9.372 19.38h-44.815l-41.374 41.374h66.375c-5.002 6.672-10.556 13.17-16.664 19.38h-69.091l-42.636 42.624-7.333 2.735-7.333-1.946c-1.568-1.476-2.542-3.577-2.542-5.893v-2.162l46.129-49.05v-92.28c6.211-6.119 12.719-11.673 19.38-16.675v89.574l41.374-41.384v-71.977c6.559-2.737 13.047-5.012 19.38-6.836v59.422l35.225-35.214 28.734-1.319z" fill="#57be92"/><g fill="#22b27f"><path d="m433.488 445.167h42.381c-5 6.667-10.557 13.167-16.668 19.382h-42.381c6.111-6.216 11.667-12.715 16.668-19.382z"/><path d="m464.111 384.412h42.381c-1.822 6.331-4.096 12.818-6.848 19.382h-42.381c2.752-6.564 5.026-13.051 6.848-19.382z"/><path d="m468.582 335.48 25.274-25.274c3.269 1.473 6.034 3.308 8.218 5.491 2.184 2.184 4.018 4.949 5.491 8.218l-38.905 38.906c1.317-10.182 1.265-19.485-.078-27.341z"/><path d="m324.3 507.17-3.228 3.239c-.533-.01-1.056-.021-1.558-.031-1.824-.062-3.485-.143-4.95-.256-1.916-.133-3.628-.933-4.929-2.163 4.161.119 8.865.124 14.665-.789z"/></g></g><g><g><path d="m219.34 217.303-9.567 7.409c-10.194.288-27.783.158-48.246-2.697-33.122-4.623-73.77-16.371-102.734-45.01l1.274-6.864-14.092-7.088c-13.264-15.85-23.477-32.88-30.816-49.623l3.2-7.46-8.687-6.492c-11.284-32.313-11.702-61.873-2.652-77.518l10.287-.446-.409-9.413c1.358-.791 2.828-1.498 4.381-2.139l.009-.009c16.426-6.753 43.624-5.506 73.118 4.79l6.576 7.292 7.376-1.805c16.743 7.339 33.783 17.552 49.632 30.816l7.943 14.864 6.009-2.046c38.731 39.15 47.205 96.874 47.205 132.917z" fill="#bbec6c"/></g><path d="m219.34 217.303-9.567 7.409c-10.194.288-27.783.158-48.246-2.697 1.191-20.882 2.828-108.65-47.186-158.664-28.594-28.592-62.99-45.967-93.062-53.39l.009-.009c16.426-6.753 43.624-5.506 73.118 4.79l6.576 7.292 7.376-1.805c16.743 7.339 33.783 17.552 49.632 30.816l7.943 14.864 6.009-2.046c38.731 39.15 47.205 96.874 47.205 132.917z" fill="#a8e237"/><path d="m162.075 177.015h-1.656l-101.627-.009c-.01-.004-.019-.008-.029-.012-4.543-4.513-8.806-9.167-12.788-13.94l102.148.009-49.633-49.633h-83.331c-2.056-4.688-3.879-9.348-5.488-13.952h74.867l-77.518-77.518c1.246-2.139 2.66-4.018 4.251-5.609s3.479-3.014 5.627-4.251l77.499 77.509.009-43.763 6.976-2.258 6.976 14.024-.009 45.949 49.632 49.632 13.952 13.952z" fill="#57be92"/><g fill="#22b27f"><path d="m94.407 14.742c4.604 1.6 9.264 3.432 13.952 5.488v37.382c-4.539-4.195-9.208-8.111-13.952-11.766z"/><path d="m219.34 217.303-.031 1.109c-.092 3.329-2.732 6.024-6.059 6.172-1.037.046-2.199.091-3.478.129l-47.698-47.698h-1.656c-.772-7.86-1.916-16.277-3.581-24.965l1.144 1.144.009-102.148c4.77 3.997 9.429 8.255 13.947 12.804.002.004.004.009.005.013l-.009 103.283z"/></g></g></g></svg>