<svg id="Layer_1" enable-background="new 0 0 512 512" viewBox="0 0 512 512" xmlns="http://www.w3.org/2000/svg"><g><path d="m277.807 55.43c-30.193-6.219-70.245-9.644-112.778-9.644-42.532 0-82.579 3.425-112.764 9.644-34.833 7.176-51.765 16.95-51.765 29.882 0 11.216 12.64 19.996 38.64 26.844 3.779.995 7.659-1.263 8.655-5.047.997-3.784-1.263-7.659-5.047-8.655-25.899-6.821-28.07-13.108-28.08-13.112.014-.083 3.194-8.619 42.315-16.411 29.059-5.788 67.43-8.975 108.046-8.975 40.613 0 78.986 3.187 108.051 8.973 39.136 7.792 42.324 16.331 42.338 16.354-.011.066-2.445 6.924-31.605 14.05-20.107 4.914-47.373 8.487-77.43 10.191l11.239-11.224c2.768-2.766 2.771-7.251.006-10.02-2.766-2.768-7.25-2.772-10.02-.006l-24.094 24.065c-1.33 1.329-2.077 3.132-2.078 5.011 0 1.88.746 3.682 2.075 5.012l24.094 24.095c1.383 1.383 3.197 2.075 5.01 2.075s3.627-.692 5.01-2.075c2.767-2.767 2.767-7.253 0-10.02l-12.642-12.642c32.696-1.747 62.324-5.664 83.938-11.13 27.364-6.918 40.665-15.866 40.665-27.353.001-12.931-16.937-22.706-51.779-29.882z" fill="#ff656f"/><g><path clip-rule="evenodd" d="m394.325 93.974 112.296 64.825c4.905 2.84 6.368 9.609 3.213 15.059l-47.844 82.838c-3.127 5.45-9.724 7.601-14.629 4.762l-82.666-47.73-44.029 7.859c25.958-44.947 47.729-82.666 73.659-127.613z" fill="#c8effe" fill-rule="evenodd"/></g><g><path clip-rule="evenodd" d="m506.506 158.742.115.057c4.905 2.84 6.368 9.609 3.213 15.059l-47.844 82.838c-3.127 5.45-9.724 7.601-14.629 4.762l-82.666-47.73-44.029 7.859 8.892-15.374 30.864-5.507 82.666 47.729c4.905 2.811 11.502.689 14.629-4.762l47.844-82.867c.4-.659.715-1.347.945-2.064z" fill="#99e6fc" fill-rule="evenodd"/></g><g><path clip-rule="evenodd" d="m127.109 433.616h215.843v45.062h-215.843z" fill="#ff4756" fill-rule="evenodd"/></g><g><path clip-rule="evenodd" d="m127.109 433.616h215.843v19.476h-197.371v25.586h-18.472z" fill="#e63544" fill-rule="evenodd"/></g><g><path clip-rule="evenodd" d="m110.014 49.142 22.832 83.526-41.448 11.33-22.803-83.526c-3.127-11.416 3.643-23.291 15.059-26.389 11.387-3.126 23.262 3.672 26.36 15.059z" fill="#9494f7" fill-rule="evenodd"/></g><path d="m202.663 261.262c-14.792-36.834-51.008-76.063-73.117-86.045l-10.574-38.735-13.67 3.731 10.568 38.712c-15.077 21.396-27.936 81.182-16.609 123.867 6.396 24.105 19.954 40.234 39.213 46.648 6.29 2.089 12.532 3.102 18.579 3.102 3.972 0 7.855-.444 11.609-1.302 1.149-.171 2.203-.444 3.127-.789.083-.031.162-.072.245-.104 12.944-3.916 24.082-12.983 31.427-26.435 9.192-16.795 8.916-38.457-.798-62.65zm-59.72 74.734c-14.713-4.9-24.802-17.293-29.988-36.836-6.594-24.849-3.98-55.421 1.708-79.045.538 11.682 1.684 24.487 3.424 37.024 3.646 26.273 10.87 59.511 24.988 78.898-.045-.015-.088-.027-.132-.041zm28.774-11.341c-1.191 8.906-3.717 12.085-4.888 12.523-.725.268-3.157-.147-7.148-3.67-12.089-10.683-22.134-39.229-27.557-78.316-3.147-22.682-3.98-43.043-3.547-56.638 6.652 10.481 15.307 26.414 23.591 45.477 14.736 33.912 21.861 63.298 19.549 80.624zm19.31-7.541c-.002.003-.003.005-.004.008-1.512 2.769-3.205 5.276-5.052 7.523 2.719-27.05-11.773-65.469-20.808-86.262-4.225-9.723-8.836-19.264-13.418-27.923 14.284 14.791 29.294 34.977 37.769 56.082 8.198 20.419 8.708 37.433 1.513 50.572z" fill="#c5dcf2"/><g><path clip-rule="evenodd" d="m137.693 435.767h194.675c36.858 0 66.976-30.146 66.976-66.976v-81.059h-328.627v81.059c0 36.83 30.147 66.976 66.976 66.976z" fill="#ff656f" fill-rule="evenodd"/></g><g><path clip-rule="evenodd" d="m308.676 287.732c-20.365-38.694-19.935-108.768 42.681-119.295 3.758-6.54 15.46-26.762 19.275-33.387-4.102-.373-8.261-.574-12.477-.574-73.057 0-132.173 59.059-132.03 131.887 0 7.257.602 14.399 1.75 21.369z" fill="#fac600" fill-rule="evenodd"/></g><g><path clip-rule="evenodd" d="m508.657 175.866c-49.795-26.532-97.725 17.669-138.025-40.817-16.665 28.855-33.302 57.682-49.967 86.538l44.029-7.859 82.666 47.73c4.905 2.84 11.502.688 14.629-4.762z" fill="#fac600" fill-rule="evenodd"/></g><g><path clip-rule="evenodd" d="m137.693 435.767h4.159c-24.926-11.703-42.28-37.088-42.28-66.316v-81.719h-28.855v81.059c0 36.83 30.147 66.976 66.976 66.976z" fill="#ff4756" fill-rule="evenodd"/></g><g><path clip-rule="evenodd" d="m360.421 200.706-30.864 5.507c-2.926 5.048-5.88 10.154-8.892 15.374l44.029-7.859 82.666 47.73c4.905 2.84 11.502.688 14.629-4.762l46.668-80.83c-3.127-1.664-6.253-3.04-9.351-4.217l-41.591 72.024c-3.127 5.45-9.724 7.572-14.629 4.762z" fill="#fbc02d" fill-rule="evenodd"/></g><g><path clip-rule="evenodd" d="m308.676 287.732c-20.365-38.694-19.935-108.768 42.681-119.295 4.704-8.175 9.408-16.321 14.141-24.496-66.374 7.458-111.149 63.735-108.08 131.313.23 4.647.402 8.806.574 12.477h50.684z" fill="#fbc02d" fill-rule="evenodd"/></g><g><path clip-rule="evenodd" d="m105.883 140.04-14.485 3.958-22.803-83.526c-2.983-10.9 3.069-22.23 13.539-25.93-1.836 4.905-2.237 10.412-.746 15.805z" fill="#8787ed" fill-rule="evenodd"/></g></g></svg>