<svg id="icons" height="512" viewBox="0 0 340 340" width="512" xmlns="http://www.w3.org/2000/svg"><path d="m61.836 154.625s27.4-17.187 65.019-21.849c3.993 1.579 12.4.695 22.43-1.1a132.746 132.746 0 0 1 24.677 3c2.645 2.478 6.731 3.61 12.3 3.354q2.345.768 4.7 1.641a13.9 13.9 0 0 1 8.71 15.629 136.944 136.944 0 0 1 -5.78 21.135c-13.731 29.63-41.984 53.832-79.09 64.174z" fill="#c96c5d"/><path d="m63.67 157.6 51.13 83.01a135.839 135.839 0 0 0 26.962-10.7 21.411 21.411 0 0 0 -1.233-3.534c-25.729-50.441-68.319-72.918-68.319-72.918-.462.242-8.54 4.142-8.54 4.142z" fill="#843734"/><path d="m193.891 176.436a102.894 102.894 0 0 1 -7.544 9.789c-7.953 8.243-16.179 16.828-39.867 30.576-4.318 2.768-13.018 7.949-19.279 11.1-5.041 2.537-9.081 6-14.876 8.689l9.465 15.366c43.484-18.131 63.194-50.839 72.101-75.52z" fill="#843734"/><path d="m121.79 55.558s32.784 58.789 120.442 65.992 88.574-65.992 88.574-65.992z" fill="#c17e61"/><path d="m121.79 55.558s11.657 4.163 30.382 13.123a11.929 11.929 0 0 1 7.048 3.438c3.972 1.976 8.192 4.136 12.627 6.487 27.124 14.379 99.325 36.468 147.44-2.086a30.905 30.905 0 0 0 7.107-40.4c-6.289-10.079-18.228-19.96-40.786-23.425-2.245 1.628-5.131.778-8.238-.933a167.937 167.937 0 0 0 -34.67 1.389c-9.171 1.22-17.72 2.623-25.678 4.159-1.493 1.83-3.991 2.306-7.435 1.508-65.568 13.969-87.797 36.74-87.797 36.74z" fill="#f4c8a6"/><path d="m8.092 233.15s18.137 59.255 111.852 26.2a14.218 14.218 0 0 0 9.511-13.958 107.619 107.619 0 0 0 -2.255-17.492z" fill="#c17e61"/><path d="m71.419 149.589c8.531 8.137 24.619 24.491 37.891 43.8a7.541 7.541 0 0 0 3.859 5.833 128.752 128.752 0 0 1 14.031 28.678s-63.385 45.6-113.12 11.234a24.118 24.118 0 0 1 -10.246-21.987 66.4 66.4 0 0 1 4.452-18.4c2.029-1.8 3.2-4.941 4.056-8.576 7.517-13.611 21.2-28.739 45.765-42.275a11.35 11.35 0 0 1 13.312 1.693z" fill="#f4c8a6"/><path d="m147.894 295.507a10.894 10.894 0 0 1 -2.725-16.141 155.826 155.826 0 0 1 17.231-18.073c6.016-2.7 10.447-5.735 11.7-9.439a133.168 133.168 0 0 1 21.363-12.691c5.979-.794 10.147-2.554 12.746-5.151a114.967 114.967 0 0 1 37.1-6.112c24.668 0 43.39 5.962 57.28 13.652.782 2.367 3.627 3.848 7.751 4.779a93.59 93.59 0 0 1 8.751 6.774c.44 2.593 2.33 4.618 6.139 5.89a84.281 84.281 0 0 1 6.755 8.057l-7.085 15.192c-52.917 45.431-107.776 45.1-163.643 21.028-5.205-2.844-9.727-5.52-13.363-7.765z" fill="#c96c5d"/><path d="m14.994 206.381a3.492 3.492 0 1 0 4.112-5.644 18.722 18.722 0 0 1 -6.759-10.568 74.387 74.387 0 0 0 -4.057 8.575 23.556 23.556 0 0 0 6.704 7.637z" fill="#c17e61"/><path d="m104.12 205.091a3.482 3.482 0 0 0 2.079-.689l6.963-5.172q-1.878-2.955-3.857-5.833l-7.27 5.4a3.492 3.492 0 0 0 2.085 6.3z" fill="#c17e61"/><path d="m126.856 132.78c-10.409 4.389-20.975 9.59-28.47 15.1a3.491 3.491 0 1 0 4.135 5.627c11.816-8.68 32.52-16.821 46.764-21.819a148 148 0 0 0 -22.429 1.092z" fill="#843734"/><path d="m173.96 134.686a207.2 207.2 0 0 0 -45.129 23.735 3.491 3.491 0 1 0 4.088 5.661c.269-.194 25.391-18.161 53.343-26.041a126.854 126.854 0 0 0 -12.302-3.355z" fill="#843734"/><path d="m126.235 213.731a3.492 3.492 0 0 1 -1.826-6.471c8.454-5.173 29.609-18.852 43.415-34.093a1.845 1.845 0 0 0 .213-2.268 1.8 1.8 0 0 0 -2.037-.899c-6 1.379-11.79 5.13-17.211 11.146a3.491 3.491 0 1 1 -5.188-4.674c6.4-7.1 13.409-11.57 20.835-13.278a8.91 8.91 0 0 1 8.564 14.661c-13.9 15.34-34.125 28.74-44.946 35.361a3.478 3.478 0 0 1 -1.819.515z" fill="#843734"/><path d="m232.749 244.462a3.492 3.492 0 0 0 -2.656-4.163c-4.709-1.039-9.938-2.5-15.543-4.326l-.719-.236c-1.522-.5-3.421-1.125-5.618-1.709a120.933 120.933 0 0 0 -12.745 5.146 52.439 52.439 0 0 1 16.18 3.2l.733.24c5.822 1.9 11.275 3.419 16.206 4.508a3.574 3.574 0 0 0 .757.083 3.493 3.493 0 0 0 3.405-2.743z" fill="#843734"/><path d="m279.511 253.048a3.493 3.493 0 0 0 -.367-4.893c-.4-.345-9.916-8.43-27.179-5.122a20.1 20.1 0 0 1 -2.387.3 3.492 3.492 0 0 0 .49 6.966 27.221 27.221 0 0 0 3.214-.41c8.141-1.56 14-.117 17.487 1.368-11.678 6.561-39.888 3.7-69.567.693l-.935-.1a121.923 121.923 0 0 0 -26.162.006 148.032 148.032 0 0 0 -11.7 9.436c12.527-3.73 26.384-3.589 37.159-2.494l.935.1c38.088 3.863 68.175 6.914 79.012-5.85z" fill="#843734"/><path d="m292.792 255.291a3.479 3.479 0 0 0 2.3-.867c2.642-2.319 9.037-6.819 15.235-8.084-2.4-1.64-4.978-3.242-7.751-4.778a51.039 51.039 0 0 0 -12.1 7.62 3.491 3.491 0 0 0 2.311 6.109z" fill="#843734"/><path d="m319.082 253.11c-7.06 2.015-14.389 6.629-21.579 13.738a57.163 57.163 0 0 1 -43.546 16.367 94.088 94.088 0 0 1 -30.852-6.859 48.783 48.783 0 0 0 -37.026-.736 38.957 38.957 0 0 0 -7.326 3.673 3.492 3.492 0 0 0 3.963 5.75 33.116 33.116 0 0 1 5.922-2.925 41.833 41.833 0 0 1 31.751.671 101.135 101.135 0 0 0 33.15 7.4q1.917.114 3.824.114a64.153 64.153 0 0 0 45.049-18.487c4.967-4.91 13.612-11.987 22.81-12.815-1.812-1.913-3.853-3.893-6.14-5.891z" fill="#843734"/><path d="m334.893 282.455a11.831 11.831 0 0 0 -.545-11.988c-.658-1.012-1.453-2.165-2.37-3.413a34.268 34.268 0 0 0 -16.12 11.2c-18.195 21.784-49.017 27.393-49.017 27.393-50.439 9.05-86.391 3.041-105.586-2.376 20.727 11.334 52.234 25.335 81.445 25.335a103.291 103.291 0 0 0 70.739-27.562 49.872 49.872 0 0 1 9.906-7.4c6.28-3.485 9.693-7.68 11.548-11.189z" fill="#843734"/><g fill="#c17e61"><path d="m181.792 51.751a3.493 3.493 0 0 1 -3.078-1.837l-1.627-3.024a3.492 3.492 0 1 1 6.149-3.311l1.628 3.024a3.494 3.494 0 0 1 -3.072 5.148z"/><path d="m162.744 61.839a3.493 3.493 0 0 0 -4.826 1.044 17.72 17.72 0 0 1 -5.747 5.8q3.377 1.615 7.048 3.439a28.448 28.448 0 0 0 4.57-5.456 3.492 3.492 0 0 0 -1.045-4.827z"/><path d="m214.07 25.35a3.491 3.491 0 0 0 5.756-3.953l-2.805-4.083q-3.807.735-7.435 1.508z"/><path d="m280.6 21.46a3.491 3.491 0 0 0 3.4 3.575h.087a3.491 3.491 0 0 0 3.489-3.406 22.456 22.456 0 0 0 -1.974-8.925q-3.9-.6-8.237-.933c1.611 2.842 3.309 6.65 3.235 9.689z"/><path d="m282.2 51.751a3.492 3.492 0 0 1 -1.1-6.807l4.559-1.512a3.492 3.492 0 0 1 2.2 6.629l-4.559 1.512a3.487 3.487 0 0 1 -1.1.178z"/><path d="m228.062 77.566h-.046c-22.956-.3-32.158-7.873-32.538-8.194a3.492 3.492 0 0 1 4.487-5.351c.192.151 8.161 6.3 28.141 6.562a3.492 3.492 0 0 1 -.044 6.983z"/><circle cx="45.096" cy="191.788" r="3.553"/><circle cx="72.21" cy="174.799" r="3.553"/><circle cx="80.516" cy="206.066" r="3.553"/><circle cx="51.447" cy="233.672" r="3.553"/></g><circle cx="114.802" cy="172.386" fill="#843734" r="3.553"/><circle cx="238.368" cy="42.642" fill="#c17e61" r="3.553"/><circle cx="244.03" cy="73.08" fill="#c17e61" r="3.553"/><circle cx="304.67" cy="63.642" fill="#c17e61" r="3.553"/></svg>