<svg viewBox="0 0 512 512" xmlns="http://www.w3.org/2000/svg" xmlns:xlink="http://www.w3.org/1999/xlink"><linearGradient id="linear-gradient" gradientUnits="userSpaceOnUse" x1="412.7" x2="276.93" y1="235.08" y2="99.3"><stop offset="0" stop-color="#6f2efe"/><stop offset=".52" stop-color="#6f2efe"/><stop offset="1" stop-color="#ae90ff"/></linearGradient><linearGradient id="linear-gradient-2" x1="235.08" x2="99.31" xlink:href="#linear-gradient" y1="412.7" y2="276.93"/><linearGradient id="linear-gradient-3" x1="409.74" x2="279.9" xlink:href="#linear-gradient" y1="409.74" y2="279.9"/><linearGradient id="linear-gradient-4" x1="232.11" x2="102.27" xlink:href="#linear-gradient" y1="232.11" y2="102.28"/><g id="Layer_12" data-name="Layer 12"><path d="m496.52 129.86c-13.43-49.48-64.89-100.94-114.37-114.37-30.33-7.57-70.98-15.36-126.15-15.49-55.16.14-95.81 7.92-126.14 15.49-49.48 13.44-100.94 64.89-114.37 114.37-7.57 30.33-15.35 70.98-15.49 126.14.14 55.17 7.92 95.82 15.49 126.15 13.43 49.48 64.89 100.93 114.37 114.37 30.33 7.57 71 15.35 126.14 15.49 55.17-.14 95.82-7.92 126.15-15.49 49.48-13.44 100.94-64.89 114.37-114.37 7.57-30.33 15.35-71 15.49-126.15-.14-55.16-7.92-95.81-15.49-126.14z" fill="#f2eeff"/><path d="m421.41 124.73c-2.62-17-17.13-31.51-34.13-34.13a407.08 407.08 0 0 0 -43.34-3.87 388.64 388.64 0 0 0 -43.2.21c-16.88 1.18-30.22 15.07-31.69 32.67-.86 10.58-1.47 25.09-1.42 45s.75 34.39 1.71 45a36.53 36.53 0 0 0 33.14 33.14c10.58 1 25.1 1.65 45 1.71s34.38-.56 44.95-1.42c17.59-1.47 31.49-14.82 32.67-31.69a388.64 388.64 0 0 0 .21-43.2 407.08 407.08 0 0 0 -3.9-43.42z" fill="url(#linear-gradient)"/><path d="m242.67 302.48a36.53 36.53 0 0 0 -33.14-33.14c-10.58-.95-25.1-1.65-45-1.71s-34.38.56-44.95 1.42c-17.59 1.47-31.49 14.82-32.67 31.69a388.64 388.64 0 0 0 -.21 43.2 409.77 409.77 0 0 0 3.87 43.34c2.63 17 17.13 31.5 34.13 34.13a407.08 407.08 0 0 0 43.34 3.87 388.64 388.64 0 0 0 43.2-.21c16.9-1.18 30.25-15.07 31.76-32.67.86-10.57 1.47-25.09 1.42-44.95s-.8-34.39-1.75-44.97z" fill="url(#linear-gradient-2)"/><path d="m425.07 300.74c-1.18-16.87-15.08-30.22-32.67-31.69-10.57-.86-25.09-1.47-44.95-1.42s-34.39.76-45 1.71a36.53 36.53 0 0 0 -33.14 33.14c-.95 10.58-1.65 25.1-1.71 45s.56 34.38 1.42 44.95c1.47 17.6 14.82 31.49 31.69 32.67a388.64 388.64 0 0 0 43.2.21 409.77 409.77 0 0 0 43.34-3.87c17-2.62 31.5-17.13 34.13-34.13a409.77 409.77 0 0 0 3.87-43.34 388.64 388.64 0 0 0 -.18-43.23z" fill="url(#linear-gradient-3)"/><path d="m119.61 243c10.57.86 25.09 1.47 45 1.42s34.39-.76 45-1.71a36.54 36.54 0 0 0 33.14-33.14c1-10.58 1.65-25.1 1.71-45s-.56-34.37-1.42-44.95c-1.47-17.6-14.82-31.49-31.69-32.67a388.64 388.64 0 0 0 -43.2-.21 407.34 407.34 0 0 0 -43.34 3.87c-17 2.62-31.5 17.13-34.13 34.13a409.77 409.77 0 0 0 -3.87 43.34c-.28 6.5-.42 12.39-.47 17.75v7.17c.07 7.13.33 13.15.68 18.23 1.1 16.91 14.98 30.26 32.59 31.77z" fill="url(#linear-gradient-4)"/></g></svg>