<svg id="Layer_1" enable-background="new 0 0 256 256" height="512" viewBox="0 0 256 256" width="512" xmlns="http://www.w3.org/2000/svg"><g><g><path d="m198.488 208.488h-140.976c-5.523 0-10-4.477-10-10v-140.976c0-5.523 4.477-10 10-10h140.975c5.523 0 10 4.477 10 10v140.975c.001 5.524-4.476 10.001-9.999 10.001z" fill="#58595b"/></g><g><path d="m198.488 47.512v140.975c0 5.523-4.477 10-10 10h-140.976c0 5.523 4.477 10 10 10h140.975c5.523 0 10-4.477 10-10v-140.975c.001-5.523-4.476-10-9.999-10z" fill="#414042"/></g><g><g><g><path d="m180.495 132.893c-.135 0-.27.001-.405.003-5.927-11.279-17.756-18.971-31.381-18.971-19.566 0-35.427 15.861-35.427 35.427 0 3.5.508 6.882 1.453 10.076-6.59 6.433-10.681 15.415-10.681 25.352 0 19.566 15.861 35.427 35.427 35.427 13.209 0 24.73-7.23 30.821-17.948 3.228.968 6.649 1.488 10.193 1.488 19.566 0 35.427-15.861 35.427-35.427s-15.861-35.427-35.427-35.427z" fill="#f1f2f2"/></g><g><g><path d="m110.06 186.78c-1.109 0-2.01-.9-2.01-2s.9-2 2.01-2c1.101 0 1.99.9 1.99 2s-.89 2-1.99 2zm1.06-7.9c-.181 0-.36-.03-.54-.08-.511-.14-.94-.47-1.2-.94-.271-.46-.33-1-.19-1.52 1.471-5.3 4.351-10.16 8.341-14.05l1.729-1.69-.69-2.31c-.859-2.89-1.289-5.9-1.289-8.94 0-17.32 14.1-31.42 31.43-31.43 11.72 0 22.39 6.45 27.84 16.84.51.97.13 2.18-.84 2.7-.95.5-2.21.1-2.7-.84-4.77-9.06-14.08-14.69-24.3-14.7-15.101.03-27.4 12.33-27.43 27.43 0 2.66.38 5.28 1.13 7.81l1.02 3.47c.21.71.01 1.47-.52 1.99l-2.591 2.53c-3.479 3.4-6 7.64-7.27 12.26-.24.86-1.03 1.47-1.93 1.47z" fill="#fff"/></g></g><g><g><path d="m200.045 138.771c3.714 5.603 5.878 12.323 5.878 19.549 0 19.566-15.861 35.427-35.427 35.427-3.543 0-6.965-.52-10.193-1.489-6.092 10.718-17.612 17.948-30.821 17.948-7.226 0-13.946-2.164-19.549-5.878 6.343 9.569 17.209 15.878 29.549 15.878 13.209 0 24.73-7.23 30.821-17.948 3.228.968 6.649 1.489 10.193 1.489 19.566 0 35.427-15.861 35.427-35.427 0-12.34-6.31-23.206-15.878-29.549z" fill="#e6e7e8"/></g></g><g><g><path d="m202.922 140.894c5 6.108 8.001 13.917 8.001 22.426 0 19.566-15.861 35.427-35.427 35.427-3.543 0-6.965-.52-10.193-1.489-6.092 10.718-17.612 17.948-30.821 17.948-8.51 0-16.318-3.001-22.426-8.001 6.497 7.936 16.37 13.001 27.426 13.001 13.209 0 24.73-7.23 30.821-17.948 3.228.968 6.649 1.489 10.193 1.489 19.566 0 35.427-15.861 35.427-35.427 0-11.056-5.065-20.929-13.001-27.426z" fill="#d1d3d4"/></g></g><g><circle cx="155.504" cy="166.687" fill="#ffa91a" r="22.94"/></g><g><path d="m167.042 146.855c1.976 3.389 3.109 7.331 3.109 11.538 0 12.669-10.271 22.94-22.94 22.94-4.206 0-8.148-1.133-11.538-3.109 3.976 6.819 11.368 11.403 19.831 11.403 12.67 0 22.94-10.271 22.94-22.94 0-8.464-4.583-15.856-11.402-19.832z" fill="#f79219"/></g></g><g><path d="m140.819 213.395c-2.842 0-5.146-2.304-5.146-5.146v-34.491h10.293v34.491c-.001 2.842-2.305 5.146-5.147 5.146z" fill="#ffa91a"/></g><g><path d="m157.059 201.315c-3.322 0-6.015-2.693-6.015-6.015v-12.096h12.03v12.096c-.001 3.323-2.693 6.015-6.015 6.015z" fill="#f79219"/></g></g><g><g><path d="m22.661 100.362c-22.632 36.907 25.143 79.732 61.777 42.96 20.919-20.919 53.566-23.982 53.566-53.566s-34.98-57.201-53.566-53.566c-20.374 3.982-56.061 55.714-61.777 64.172z" fill="#fcc4ae"/></g><g><path d="m115.224 47.939c7.522 9.172 12.781 20.346 12.781 31.817 0 29.584-32.647 32.647-53.566 53.566-17.46 17.526-37.451 16.971-51.144 7.593 12.046 17.58 38.688 24.948 61.144 2.407 20.919-20.919 53.566-23.982 53.566-53.566 0-16.092-10.35-31.602-22.781-41.817z" fill="#f2ad97"/></g><g><path d="m31.858 103.301c-9.344 13.903-5.972 27.835 2.613 36.423 10.002 10.004 27.267 12.926 43.282-3.088 8.213-8.213 17.868-13.859 26.387-18.841 16.04-9.381 24.407-14.888 24.407-28.038 0-24.322-28.841-47.281-44.11-44.109-19.099 3.966-52.579 57.653-52.579 57.653z" fill="#f2ad97"/></g><g><path d="m108.738 54.43c5.809 7.401 9.81 16.269 9.81 25.327 0 13.15-8.368 18.657-24.407 28.038-8.519 4.982-18.174 10.629-26.387 18.841-13.325 13.324-27.515 13.539-37.667 7.473 1.224 2.049 2.704 3.934 4.384 5.615 10.002 10.004 27.267 12.926 43.282-3.088 8.213-8.213 17.868-13.859 26.387-18.841 16.04-9.381 24.407-14.888 24.407-28.038.001-13.673-9.115-26.915-19.809-35.327z" fill="#e59076"/></g><g><path d="m128.548 89.755c0 .447-.012.883-.031 1.313l-51.045-42.311c2.01-1.355 4.227-2.373 6.565-3.013l43.523 36.075c.646 2.596.978 5.261.988 7.936zm-93.44 8.516 44.324 36.739c1.627-1.524 3.297-2.956 4.999-4.311l-45.678-37.859c-1.402 2.051-2.63 3.888-3.645 5.431zm-8.813 20.904 33.785 28.005c2.444-.585 4.809-1.464 7.042-2.618l-39.474-32.72c-.776 2.374-1.231 4.84-1.353 7.333zm21.31-38.754 49.862 41.33c2.018-1.229 4.003-2.397 5.94-3.53l-51.857-42.985c-1.355 1.741-2.673 3.477-3.945 5.185zm13.656-16.891 55.728 46.192c1.799-1.282 3.497-2.701 5.077-4.246l-56.355-46.712c-1.485 1.516-2.972 3.113-4.45 4.766z" fill="#ffd2c0"/></g></g><g><g><path d="m175.109 54.73-6.061-21.933c-.856-3.098-5.232-3.146-6.156-.068l-4.252 14.158c-.812 2.704-3.062 4.731-5.836 5.257l-14.524 2.756c-3.158.599-3.565 4.956-.573 6.13l21.183 8.311c.795.312 1.307 1.078 1.302 1.932-.066 11.344 1.937 26.609 11.438 37.156 11.857 13.162 32.239 15.477 43.344 15.687 4.543.086 8.389-3.379 8.776-7.906.947-11.067.765-31.579-11.092-44.741-9.501-10.547-24.474-14.128-35.764-15.242-.849-.085-1.557-.674-1.785-1.497z" fill="#fcc4ae"/></g></g><g><circle cx="197.392" cy="95.529" fill="#f2ad97" r="4.513"/></g><g><g><path d="m212.659 71.468c-2.048-2.273-4.349-4.222-6.813-5.893 8.695 13.022 8.758 30.662 7.905 40.634-.387 4.527-4.233 7.992-8.776 7.906-9.188-.174-24.725-1.788-36.531-9.794.955 1.43 2.014 2.805 3.187 4.107 11.857 13.162 32.239 15.477 43.344 15.687 4.543.086 8.388-3.379 8.776-7.906.947-11.067.765-31.579-11.092-44.741z" fill="#f2ad97"/></g></g><g><g><path d="m88.861 152.059c-3.62 3.62-3.729 9.724-3.557 12.545.054.891.768 1.605 1.66 1.66 2.822.171 8.925.063 12.545-3.557s3.729-9.724 3.557-12.545c-.054-.891-.768-1.605-1.66-1.66-2.822-.172-8.925-.064-12.545 3.557z" fill="#76a34f"/></g></g><g><path d="m103.066 150.161c-.054-.891-.768-1.605-1.659-1.66-.865-.053-2.039-.079-3.355.015-.211 2.976-1.032 6.68-3.543 9.19-2.51 2.51-6.214 3.332-9.19 3.543-.093 1.316-.067 2.49-.015 3.355.054.891.768 1.605 1.66 1.66 2.822.171 8.925.063 12.545-3.557 3.62-3.621 3.728-9.725 3.557-12.546z" fill="#648940"/></g><g><g><path d="m65.47 188.05c4.228 4.228 11.355 4.354 14.65 4.154 1.041-.063 1.875-.897 1.938-1.938.2-3.295.073-10.422-4.154-14.65-4.228-4.228-11.355-4.354-14.65-4.154-1.041.063-1.875.897-1.938 1.938-.2 3.296-.073 10.423 4.154 14.65z" fill="#76a34f"/></g></g><g><path d="m77.904 175.617c-.863-.863-1.846-1.554-2.893-2.107 2.158 4.084 2.206 9.134 2.047 11.757-.063 1.041-.897 1.875-1.938 1.938-2.623.159-7.673.111-11.757-2.047.553 1.047 1.245 2.03 2.107 2.893 4.228 4.228 11.355 4.354 14.65 4.154 1.041-.063 1.875-.897 1.938-1.938.2-3.296.073-10.423-4.154-14.65z" fill="#648940"/></g></g></svg>