<svg id="Icons" height="512" viewBox="0 0 60 60" width="512" xmlns="http://www.w3.org/2000/svg"><path d="m50 15v2h-40v-2l1.62-3.78a5.322 5.322 0 0 1 4.88-3.22 5 5 0 0 0 4-2 5 5 0 0 1 4-2h1.12a5.074 5.074 0 0 0 2.57-.71l2.62-1.58a5.074 5.074 0 0 1 2.57-.71h.87a5.009 5.009 0 0 1 3.12 1.1l3.05 2.44a5.552 5.552 0 0 0 1.27.74l1.88.75a5.651 5.651 0 0 1 3.26 3.45 4.427 4.427 0 0 0 .45.99z" fill="#d4e6e7"/><path d="m54.41 51.65a4.994 4.994 0 0 1 -6.99 6.63 5.058 5.058 0 0 0 -3.72-.71 62.462 62.462 0 0 1 -13.7 1.43 62.462 62.462 0 0 1 -13.7-1.43 5.058 5.058 0 0 0 -3.72.71 4.993 4.993 0 0 1 -6.99-6.63 5.084 5.084 0 0 0 .46-3.61 37.706 37.706 0 0 1 -1.05-9.04c0-6.72 1.59-12.62 4-16v-2h42v2c2.41 3.38 4 9.28 4 16a37.706 37.706 0 0 1 -1.05 9.04 5.084 5.084 0 0 0 .46 3.61z" fill="#a6725c"/><rect fill="#8f5c4a" height="8" rx="2" width="48" x="6" y="15"/><g fill="#aac7c8"><path d="m27 9h-2a1 1 0 0 1 0-2h2a1 1 0 0 1 0 2z"/><path d="m36 7h-2a1 1 0 0 1 0-2h2a1 1 0 0 1 0 2z"/><path d="m22 12h-2a1 1 0 0 1 0-2h2a1 1 0 0 1 0 2z"/><path d="m33 12h-2a1 1 0 0 1 0-2h2a1 1 0 0 1 0 2z"/><path d="m41 12h-2a1 1 0 0 1 0-2h2a1 1 0 0 1 0 2z"/></g><path d="m23 32a1 1 0 0 0 -1 1v7.5a1.5 1.5 0 0 1 -3 0v-7.5a1 1 0 0 0 -2 0v7.5a3.5 3.5 0 0 0 7 0v-7.5a1 1 0 0 0 -1-1z" fill="#fff"/><path d="m38.5 32a3.5 3.5 0 0 0 -3.5 3.5v7.5a1 1 0 0 0 2 0v-3h3v3a1 1 0 0 0 2 0v-7.5a3.5 3.5 0 0 0 -3.5-3.5zm-1.5 6v-2.5a1.5 1.5 0 0 1 3 0v2.5z" fill="#fff"/><path d="m49.618 39a3.983 3.983 0 0 0 -2.618-7h-2a1 1 0 0 0 -1 1v10a1 1 0 0 0 2 0v-3h1a2 2 0 0 1 2 2v1a1 1 0 0 0 2 0v-1a3.975 3.975 0 0 0 -1.382-3zm-3.618-5h1a2 2 0 0 1 0 4h-1z" fill="#fff"/><path d="m32 38h-1a1 1 0 0 0 0 2v.5a1.5 1.5 0 0 1 -3 0v-5a1.5 1.5 0 0 1 2.97-.3 1 1 0 0 0 1.961-.4 3.5 3.5 0 0 0 -6.931.7v5a3.5 3.5 0 0 0 7 0v-1.5a1 1 0 0 0 -1-1z" fill="#fff"/><path d="m11.5 37a1.5 1.5 0 1 1 1.47-1.8 1 1 0 0 0 1.961-.4 3.5 3.5 0 1 0 -3.431 4.2 1.5 1.5 0 1 1 -1.47 1.8 1 1 0 0 0 -1.961.4 3.5 3.5 0 1 0 3.431-4.2z" fill="#fff"/></svg>